# xmcd
#
# Track frame offsets: 
#        150
#        23168
#        40596
#        56611
#        72991
#        92361
#        109050
#        128101
#        153010
#        167955
#        183641
#        201795
#        220069
#        236511
#
# Disc length: 3380 seconds
#
# Revision: 0
# Processed by: cddbd v1.5.2PL0 Copyright (c) Steve Scherf et al.
# Submitted via: ExactAudioCopyFreeDBPlugin 1.0
#
DISCID=b60d320e
DTITLE=Musiq Soulchild - Life on Earth (Deluxe Editioni)
DYEAR=2016
DGENRE=R&B
TTITLE0=Wait a Minute" (featuring Willie Hyn)
TTITLE1=Who Really Loves You
TTITLE2=Heart Away
TTITLE3=Loving You
TTITLE4=I Do
TTITLE5=Changed My Mind
TTITLE6=Walk Away
TTITLE7=Far Gone (feat. Rapsody)
TTITLE8=Part of Me (feat. JoiStaRR)
TTITLE9=Alive and Well
TTITLE10=The Girl (feat. JoiStaRR)
TTITLE11=Life on Earth
TTITLE12=Im Gone (Bonus)
TTITLE13=Game of Love (Bonus)
EXTD=
EXTT0=
EXTT1=
EXTT2=
EXTT3=
EXTT4=
EXTT5=
EXTT6=
EXTT7=
EXTT8=
EXTT9=
EXTT10=
EXTT11=
EXTT12=
EXTT13=
PLAYORDER=
